<svg xmlns="http://www.w3.org/2000/svg" viewBox="0 0 128 128" role="img" aria-label="TailorIQ">
  <defs>
    <linearGradient id="phone" x1="24" x2="104" y1="10" y2="118" gradientUnits="userSpaceOnUse">
      <stop stop-color="#ff9f00"/>
      <stop offset="1" stop-color="#c95a00"/>
    </linearGradient>
    <linearGradient id="tape" x1="12" x2="118" y1="72" y2="100" gradientUnits="userSpaceOnUse">
      <stop stop-color="#ff9f00"/>
      <stop offset="1" stop-color="#ff9f00"/>
    </linearGradient>
  </defs>
  <rect width="128" height="128" rx="28" fill="#07101d"/>
  <rect x="34" y="14" width="60" height="92" rx="13" fill="none" stroke="url(#phone)" stroke-width="6"/>
  <path d="M55 17h18a5 5 0 0 1-5 5h-8a5 5 0 0 1-5-5Z" fill="#07101d" stroke="url(#phone)" stroke-width="4"/>
  <path d="M64 30a8 8 0 0 1 8 8c0 4-2 7-5 8v7h7c6 0 11 5 11 11v17H43V64c0-6 5-11 11-11h7v-7c-3-1-5-4-5-8a8 8 0 0 1 8-8Z" fill="#f7fbff"/>
  <path d="M55 82h18l3 18H52l3-18Z" fill="#f7fbff"/>
  <path d="M43 65h42M48 80h32M58 82v18M70 82v18" fill="none" stroke="#ff9f00" stroke-width="3" stroke-dasharray="7 5" stroke-linecap="round"/>
  <path d="M91 70c17 4 27 12 28 22 1 9-7 17-21 22" fill="none" stroke="url(#tape)" stroke-width="13" stroke-linecap="round" opacity=".95"/>
  <path d="M91 70c17 4 27 12 28 22 1 9-7 17-21 22" fill="none" stroke="#07101d" stroke-width="2" stroke-dasharray="2 8" stroke-linecap="round" opacity=".75"/>
  <path d="M18 86c20 18 73 22 100 2" fill="none" stroke="url(#tape)" stroke-width="15" stroke-linecap="round"/>
  <path d="M22 86c18 15 66 18 91 2" fill="none" stroke="#07101d" stroke-width="2" stroke-dasharray="2 7" stroke-linecap="round" opacity=".75"/>
  <g stroke="#07101d" stroke-width="2" stroke-linecap="round" opacity=".8">
    <path d="M32 92v7"/>
    <path d="M42 95v6"/>
    <path d="M52 97v7"/>
    <path d="M62 98v6"/>
    <path d="M72 98v7"/>
    <path d="M82 97v6"/>
    <path d="M92 95v7"/>
    <path d="M102 92v6"/>
  </g>
</svg>


