<svg xmlns="http://www.w3.org/2000/svg" viewBox="0 0 1200 420" role="img" aria-label="TailorIQ logo">
  <defs>
    <linearGradient id="bg" x1="0" x2="1200" y1="0" y2="420" gradientUnits="userSpaceOnUse">
      <stop stop-color="#050505"/>
      <stop offset=".58" stop-color="#0d0b08"/>
      <stop offset="1" stop-color="#171106"/>
    </linearGradient>
    <linearGradient id="gold" x1="130" x2="410" y1="72" y2="330" gradientUnits="userSpaceOnUse">
      <stop stop-color="#ffd76a"/>
      <stop offset=".45" stop-color="#ffab00"/>
      <stop offset="1" stop-color="#c56600"/>
    </linearGradient>
    <linearGradient id="textGold" x1="720" x2="910" y1="130" y2="260" gradientUnits="userSpaceOnUse">
      <stop stop-color="#ffd76a"/>
      <stop offset="1" stop-color="#ff9f00"/>
    </linearGradient>
    <filter id="shadow" x="-20%" y="-20%" width="140%" height="140%">
      <feDropShadow dx="0" dy="18" stdDeviation="18" flood-color="#000000" flood-opacity=".42"/>
    </filter>
  </defs>

  <rect width="1200" height="420" rx="44" fill="url(#bg)"/>
  <path d="M58 334c170 35 352 34 542-4 211-42 394-39 548 10" fill="none" stroke="#ff9f00" stroke-opacity=".18" stroke-width="2"/>
  <path d="M60 88c167-37 349-37 545 0 204 38 384 38 540 0" fill="none" stroke="#ffffff" stroke-opacity=".05" stroke-width="2"/>

  <g transform="translate(94 50)" filter="url(#shadow)">
    <rect x="0" y="0" width="320" height="320" rx="72" fill="#070707" stroke="#ff9f00" stroke-opacity=".35" stroke-width="2"/>
    <rect x="91" y="33" width="140" height="214" rx="30" fill="none" stroke="url(#gold)" stroke-width="14"/>
    <path d="M139 39h43a12 12 0 0 1-12 12h-19a12 12 0 0 1-12-12Z" fill="#070707" stroke="url(#gold)" stroke-width="8"/>

    <path d="M161 70a20 20 0 0 1 20 20c0 10-5 17-13 20v17h18c15 0 28 12 28 27v42H108v-42c0-15 13-27 28-27h18v-17c-8-3-13-10-13-20a20 20 0 0 1 20-20Z" fill="#f9fbff"/>
    <path d="M139 198h45l8 43h-61l8-43Z" fill="#f9fbff"/>
    <path d="M108 157h106M121 193h82M147 198v42M176 198v42" fill="none" stroke="#ff9f00" stroke-width="7" stroke-dasharray="15 12" stroke-linecap="round"/>

    <path d="M229 164c40 9 64 28 67 52 2 22-18 42-53 53" fill="none" stroke="url(#gold)" stroke-width="30" stroke-linecap="round"/>
    <path d="M229 164c40 9 64 28 67 52 2 22-18 42-53 53" fill="none" stroke="#070707" stroke-width="5" stroke-dasharray="4 17" stroke-linecap="round" opacity=".75"/>
    <path d="M37 201c49 43 178 52 243 5" fill="none" stroke="url(#gold)" stroke-width="34" stroke-linecap="round"/>
    <path d="M48 201c43 35 158 42 217 5" fill="none" stroke="#070707" stroke-width="5" stroke-dasharray="4 16" stroke-linecap="round" opacity=".75"/>
    <g stroke="#070707" stroke-width="5" stroke-linecap="round" opacity=".82">
      <path d="M72 216v17"/>
      <path d="M96 222v15"/>
      <path d="M120 227v17"/>
      <path d="M144 230v15"/>
      <path d="M168 231v17"/>
      <path d="M192 228v15"/>
      <path d="M216 223v17"/>
      <path d="M240 216v15"/>
    </g>
  </g>

  <g transform="translate(470 110)">
    <text x="0" y="110" fill="#ffffff" font-family="Inter, Arial, Helvetica, sans-serif" font-size="118" font-weight="800" letter-spacing="0">
      Tailor<tspan fill="url(#textGold)">IQ</tspan>
    </text>
    <g transform="translate(4 172)">
      <path d="M0 0h74" stroke="#ff9f00" stroke-width="5" stroke-linecap="round"/>
      <text x="104" y="10" fill="#ffffff" font-family="Inter, Arial, Helvetica, sans-serif" font-size="22" font-weight="700" letter-spacing="4">
        MEASURE SMART. FIT PERFECT.
      </text>
      <path d="M560 0h74" stroke="#ff9f00" stroke-width="5" stroke-linecap="round"/>
    </g>
  </g>
</svg>
